# xmcd
#
# Track frame offsets:
#	150
#	16685
#	33941
#	48358
#	63400
#	76810
#	94060
#
# Disc length: 1454 seconds
#
# Revision: 0
# Processed by: cddbd v1.5.2PL0 Copyright (c) Steve Scherf et al.
# Submitted via: audiograbber 1.83.01
#
DISCID=4505ac07
DTITLE=Hannah Michelle Weeks - Life's a Drama
DYEAR=2009
DGENRE=Country
TTITLE0=Good Hair Day
TTITLE1=Wild Pony
TTITLE2=I Think I Am
TTITLE3=You Just Want Me
TTITLE4=I Broke Up With You First
TTITLE5=Life's a Drama
TTITLE6=Fantasy Land
EXTD=
EXTT0=
EXTT1=
EXTT2=
EXTT3=
EXTT4=
EXTT5=
EXTT6=
PLAYORDER=
